{
	"asset":{
		"generator":"Khronos glTF Blender I/O v4.1.62",
		"version":"2.0"
	},
	"extensionsUsed":[
		"KHR_materials_specular"
	],
	"scene":0,
	"scenes":[
		{
			"name":"Scene",
			"nodes":[
				42
			]
		}
	],
	"nodes":[
		{
			"name":"head0_end",
			"rotation":[
				1.0430930785787496e-07,
				1.5828845789656043e-08,
				5.5824784794822335e-09,
				1
			],
			"translation":[
				-3.073364496231079e-08,
				9.231083869934082,
				-2.482556737959385e-07
			]
		},
		{
			"children":[
				0
			],
			"name":"head0",
			"rotation":[
				0.5760828852653503,
				-0.014826658181846142,
				-0.00834579300135374,
				0.8172141909599304
			],
			"scale":[
				1.0000001192092896,
				1,
				0.9999999403953552
			],
			"translation":[
				-5.960464477539063e-08,
				8.025426864624023,
				2.9280781745910645e-06
			]
		},
		{
			"children":[
				1
			],
			"name":"neck1",
			"rotation":[
				0.06397929787635803,
				0.021641742438077927,
				0.04896492883563042,
				0.9965143203735352
			],
			"scale":[
				0.9999999403953552,
				0.9999998211860657,
				0.9999999403953552
			],
			"translation":[
				5.960464477539063e-08,
				8.858906745910645,
				-3.110617399215698e-07
			]
		},
		{
			"children":[
				2
			],
			"name":"neck0",
			"rotation":[
				-0.36131346225738525,
				-0.029862988740205765,
				-0.04026270657777786,
				0.9310959577560425
			],
			"translation":[
				7.450580596923828e-08,
				9.386289596557617,
				7.632188498973846e-07
			]
		},
		{
			"name":"leg_front_left_toe_end",
			"rotation":[
				-9.71445146547012e-15,
				-3.7252778639640383e-09,
				-7.450579886381092e-08,
				1
			],
			"translation":[
				5.692234026355436e-07,
				3.000002145767212,
				-2.3226236862683436e-06
			]
		},
		{
			"children":[
				4
			],
			"name":"leg_front_left_toe",
			"rotation":[
				-0.47988957166671753,
				0.22052164375782013,
				0.2205217182636261,
				0.8200283050537109
			],
			"scale":[
				0.9999998807907104,
				0.9999998807907104,
				0.9999999403953552
			],
			"translation":[
				7.152557373046875e-07,
				6.332656383514404,
				1.7881393432617188e-06
			]
		},
		{
			"children":[
				5
			],
			"name":"leg_front_left_ankle",
			"rotation":[
				-0.12752467393875122,
				-0.7803998589515686,
				-0.16093362867832184,
				0.5906046628952026
			],
			"scale":[
				1.0000001192092896,
				1.0000001192092896,
				1
			],
			"translation":[
				7.152557373046875e-07,
				12.23774528503418,
				-1.1920928955078125e-07
			]
		},
		{
			"children":[
				6
			],
			"name":"leg_front_left_bot0",
			"rotation":[
				-0.016841067001223564,
				-0.8167423605918884,
				-0.08679214119911194,
				0.5701889395713806
			],
			"scale":[
				1,
				1.0000003576278687,
				1
			],
			"translation":[
				-1.4950637705624104e-07,
				12.130309104919434,
				3.644363459898159e-07
			]
		},
		{
			"children":[
				7
			],
			"name":"leg_front_left_top1",
			"rotation":[
				0.0050856368616223335,
				0.24678228795528412,
				-0.22390396893024445,
				0.9428359866142273
			],
			"scale":[
				0.9999999403953552,
				1,
				0.9999998807907104
			],
			"translation":[
				1.7434358596801758e-06,
				8.325601577758789,
				3.296881914138794e-06
			]
		},
		{
			"children":[
				8
			],
			"name":"leg_front_left_top0",
			"rotation":[
				0.3463343381881714,
				0.6306675672531128,
				0.6944849491119385,
				0.0012566274963319302
			],
			"scale":[
				1,
				1.000000238418579,
				1
			],
			"translation":[
				7.450580596923828e-08,
				9.386289596557617,
				7.632188498973846e-07
			]
		},
		{
			"name":"leg_front_right_toe_end",
			"rotation":[
				3.1292447033592907e-07,
				4.296502424949722e-07,
				4.520018137554871e-07,
				1
			],
			"translation":[
				3.129534889012575e-07,
				3.000001907348633,
				-5.329816303856205e-07
			]
		},
		{
			"children":[
				10
			],
			"name":"leg_front_right_toe",
			"rotation":[
				-0.4512665271759033,
				-0.25367507338523865,
				-0.25367483496665955,
				0.8171025514602661
			],
			"scale":[
				1,
				1,
				0.9999999403953552
			],
			"translation":[
				2.384185791015625e-07,
				6.465291976928711,
				1.0728836059570312e-06
			]
		},
		{
			"children":[
				11
			],
			"name":"leg_front_right_ankle",
			"rotation":[
				-0.1227983832359314,
				-0.007483214605599642,
				-0.05127795413136482,
				0.9910777807235718
			],
			"scale":[
				0.9999998807907104,
				1.0000001192092896,
				0.9999999403953552
			],
			"translation":[
				7.152557373046875e-07,
				14.059608459472656,
				0
			]
		},
		{
			"children":[
				12
			],
			"name":"leg_front_right_bot0",
			"rotation":[
				0.021797465160489082,
				-0.9176977276802063,
				-0.11889419704675674,
				0.37844404578208923
			],
			"scale":[
				0.9999999403953552,
				1,
				1
			],
			"translation":[
				-7.989001460373402e-08,
				10.531874656677246,
				1.2343480193521827e-07
			]
		},
		{
			"children":[
				13
			],
			"name":"leg_front_right_top1",
			"rotation":[
				-0.020444538444280624,
				0.860602080821991,
				0.3834390938282013,
				0.3345453143119812
			],
			"scale":[
				1,
				1.0000001192092896,
				1
			],
			"translation":[
				1.4901161193847656e-06,
				9.426249504089355,
				-7.897615432739258e-07
			]
		},
		{
			"children":[
				14
			],
			"name":"leg_front_right_top0",
			"rotation":[
				0.36955660581588745,
				0.20753887295722961,
				0.23400703072547913,
				0.8749836087226868
			],
			"translation":[
				7.450580596923828e-08,
				-7.413327693939209e-07,
				-7.972121238708496e-07
			]
		},
		{
			"children":[
				3,
				9,
				15
			],
			"name":"body_top1",
			"rotation":[
				-0.0829816460609436,
				0.0053434777073562145,
				0.004046408925205469,
				0.9965285658836365
			],
			"scale":[
				0.9999999403953552,
				0.9999998807907104,
				0.9999999403953552
			],
			"translation":[
				-2.2351741790771484e-08,
				9.431201934814453,
				1.30385160446167e-07
			]
		},
		{
			"children":[
				16
			],
			"name":"body_top0",
			"rotation":[
				-0.014147087931632996,
				-0.00395012553781271,
				-0.003794365096837282,
				0.9998849034309387
			],
			"scale":[
				1,
				1.0000001192092896,
				0.9999998807907104
			],
			"translation":[
				-1.6391277313232422e-07,
				8.451560974121094,
				1.4454126358032227e-06
			]
		},
		{
			"name":"tail5_end",
			"rotation":[
				-1.1508237776070018e-06,
				-8.032657916601238e-08,
				-1.7927962403518904e-07,
				1
			],
			"scale":[
				0.9999999403953552,
				0.9999999403953552,
				0.9999999403953552
			],
			"translation":[
				2.384185791015625e-07,
				2.8191375732421875,
				2.600252628326416e-06
			]
		},
		{
			"children":[
				18
			],
			"name":"tail5",
			"rotation":[
				0.09132882952690125,
				0.008251086808741093,
				0.01690516248345375,
				0.995643138885498
			],
			"scale":[
				1,
				1,
				0.9999999403953552
			],
			"translation":[
				8.940696716308594e-08,
				4.168933868408203,
				-2.905726432800293e-06
			]
		},
		{
			"children":[
				19
			],
			"name":"tail4",
			"rotation":[
				0.18073302507400513,
				0.028676513582468033,
				0.05495716631412506,
				0.9815768003463745
			],
			"scale":[
				1.0000001192092896,
				0.9999998807907104,
				0.9999999403953552
			],
			"translation":[
				1.4901161193847656e-07,
				4.391189098358154,
				-2.51084566116333e-06
			]
		},
		{
			"children":[
				20
			],
			"name":"tail3",
			"rotation":[
				0.15422523021697998,
				0.011406103149056435,
				0.009883395396173,
				0.9879204630851746
			],
			"translation":[
				1.1920928955078125e-07,
				5.02219820022583,
				-4.852190613746643e-07
			]
		},
		{
			"children":[
				21
			],
			"name":"tail2",
			"rotation":[
				0.09601001441478729,
				0.00038003703230060637,
				-0.029959721490740776,
				0.994929313659668
			],
			"scale":[
				0.9999999403953552,
				0.9999998807907104,
				0.9999999403953552
			],
			"translation":[
				-2.0116567611694336e-07,
				4.019329071044922,
				3.019813448190689e-07
			]
		},
		{
			"children":[
				22
			],
			"name":"tail1",
			"rotation":[
				0.42611443996429443,
				0.007702511735260487,
				-0.0644814744591713,
				0.9023354649543762
			],
			"scale":[
				1,
				1,
				0.9999998807907104
			],
			"translation":[
				5.066394805908203e-07,
				6.788593292236328,
				-6.915070116519928e-06
			]
		},
		{
			"children":[
				23
			],
			"name":"tail0",
			"rotation":[
				0.3623063564300537,
				-0.03158655762672424,
				0.048650141805410385,
				0.9302524328231812
			],
			"scale":[
				1.0000001192092896,
				1,
				0.9999999403953552
			],
			"translation":[
				-7.450580596923828e-08,
				9.879390716552734,
				-5.876645445823669e-07
			]
		},
		{
			"children":[
				24
			],
			"name":"pelvis",
			"rotation":[
				0.06653594970703125,
				0.051374830305576324,
				-0.055705346167087555,
				0.9949023127555847
			],
			"scale":[
				1,
				1,
				0.9999998807907104
			],
			"translation":[
				-1.1175870895385742e-07,
				10.228497505187988,
				-6.537884473800659e-07
			]
		},
		{
			"name":"leg_hind_left_toe_end",
			"rotation":[
				-7.450563721533854e-09,
				4.800617716682609e-07,
				-9.934087330520924e-09,
				1
			],
			"translation":[
				3.4425738704157993e-07,
				2.999994993209839,
				-7.29340627003694e-07
			]
		},
		{
			"children":[
				26
			],
			"name":"leg_hind_left_toe",
			"rotation":[
				-0.6440479159355164,
				0.207744762301445,
				0.20774659514427185,
				0.7063184976577759
			],
			"scale":[
				0.9999998807907104,
				0.9999999403953552,
				0.9999998807907104
			],
			"translation":[
				-1.0132789611816406e-06,
				7.729969024658203,
				-2.1457672119140625e-06
			]
		},
		{
			"children":[
				27
			],
			"name":"leg_hind_left_ankle",
			"rotation":[
				-0.37935709953308105,
				-0.24757909774780273,
				0.10530643165111542,
				0.8852701783180237
			],
			"scale":[
				1.0000001192092896,
				1,
				1
			],
			"translation":[
				-2.086162567138672e-07,
				22.42688751220703,
				2.473592758178711e-06
			]
		},
		{
			"children":[
				28
			],
			"name":"leg_hind_left_bot0",
			"rotation":[
				0.04378218203783035,
				0.9337190389633179,
				-0.35512658953666687,
				0.011705943383276463
			],
			"scale":[
				1,
				0.9999999403953552,
				1
			],
			"translation":[
				-5.215115379542112e-07,
				5.343442916870117,
				-6.209677394508617e-07
			]
		},
		{
			"children":[
				29
			],
			"name":"leg_hind_left_top1",
			"rotation":[
				-0.018846677616238594,
				-0.40194568037986755,
				-0.20764000713825226,
				0.8916109800338745
			],
			"scale":[
				1,
				1,
				0.9999998807907104
			],
			"translation":[
				5.21540641784668e-08,
				9.225593566894531,
				2.942979335784912e-06
			]
		},
		{
			"children":[
				30
			],
			"name":"leg_hind_left_top0",
			"rotation":[
				-0.45949479937553406,
				-0.6044477224349976,
				0.6316250562667847,
				0.1567077487707138
			],
			"scale":[
				1,
				1.0000001192092896,
				1.0000001192092896
			],
			"translation":[
				-1.1175870895385742e-07,
				10.228497505187988,
				-6.537884473800659e-07
			]
		},
		{
			"name":"leg_hind_right_toe_end",
			"rotation":[
				-1.583356379342149e-08,
				2.1797629869979573e-06,
				2.235178442333563e-07,
				1
			],
			"translation":[
				5.126430551172234e-07,
				3.00000262260437,
				2.2829899535281584e-06
			]
		},
		{
			"children":[
				32
			],
			"name":"leg_hind_right_toe",
			"rotation":[
				-0.5326386094093323,
				-0.41760218143463135,
				-0.4176001250743866,
				0.6062299609184265
			],
			"scale":[
				1.0000001192092896,
				1.0000001192092896,
				1
			],
			"translation":[
				1.1920928955078125e-07,
				8.948453903198242,
				-7.152557373046875e-07
			]
		},
		{
			"children":[
				33
			],
			"name":"leg_hind_right_ankle",
			"rotation":[
				-0.3437071740627289,
				0.5646594166755676,
				-0.21557500958442688,
				0.7187158465385437
			],
			"scale":[
				1,
				1.0000001192092896,
				1.0000001192092896
			],
			"translation":[
				6.854534149169922e-07,
				21.475629806518555,
				3.8743019104003906e-07
			]
		},
		{
			"children":[
				34
			],
			"name":"leg_hind_right_bot0",
			"rotation":[
				-0.044400375336408615,
				0.9290845990180969,
				-0.36537298560142517,
				0.03651212900876999
			],
			"scale":[
				1,
				0.9999999403953552,
				1
			],
			"translation":[
				-3.1391391530632973e-07,
				5.243887424468994,
				-4.4820808398071676e-07
			]
		},
		{
			"children":[
				35
			],
			"name":"leg_hind_right_top1",
			"rotation":[
				-0.020339012145996094,
				0.425694078207016,
				0.17484477162361145,
				0.8875811100006104
			],
			"translation":[
				-1.5050172805786133e-06,
				8.920119285583496,
				-2.384185791015625e-06
			]
		},
		{
			"children":[
				36
			],
			"name":"leg_hind_right_top0",
			"rotation":[
				-0.4533730149269104,
				0.645796000957489,
				-0.6054002046585083,
				0.10436099022626877
			],
			"scale":[
				1,
				0.9999998807907104,
				0.9999998211860657
			],
			"translation":[
				-1.1175870895385742e-07,
				10.228497505187988,
				-6.537884473800659e-07
			]
		},
		{
			"children":[
				25,
				31,
				37
			],
			"name":"body_bot",
			"rotation":[
				0.9967540502548218,
				-0.04830599203705788,
				-0.025512482970952988,
				0.05913573130965233
			],
			"scale":[
				0.9999980926513672,
				0.9999999403953552,
				0.9999970197677612
			],
			"translation":[
				-8.940696716308594e-08,
				-1.0998919606208801e-06,
				-3.157183527946472e-07
			]
		},
		{
			"children":[
				17,
				38
			],
			"name":"body",
			"rotation":[
				0.7444769740104675,
				6.630170901189558e-08,
				0.013294289819896221,
				0.6675158143043518
			],
			"scale":[
				1,
				0.9999999403953552,
				0.9999999403953552
			],
			"translation":[
				0.6499999761581421,
				39.01434326171875,
				-11.950389862060547
			]
		},
		{
			"children":[
				39
			],
			"name":"root",
			"rotation":[
				-0.7071031928062439,
				0,
				0,
				0.7071103453636169
			],
			"translation":[
				0,
				0,
				31.074462890625
			]
		},
		{
			"mesh":0,
			"name":"Untitled2",
			"skin":0
		},
		{
			"children":[
				41,
				40
			],
			"name":"rig",
			"rotation":[
				0.7071068286895752,
				0,
				0,
				0.7071068286895752
			]
		}
	],
	"materials":[
		{
			"doubleSided":true,
			"extensions":{
				"KHR_materials_specular":{
					"specularColorFactor":[
						1.600000023841858,
						1.600000023841858,
						1.600000023841858
					]
				}
			},
			"name":"None",
			"pbrMetallicRoughness":{
				"baseColorFactor":[
					0.800000011920929,
					0.800000011920929,
					0.800000011920929,
					1
				],
				"metallicFactor":0,
				"roughnessFactor":0.2546440064907074
			}
		}
	],
	"meshes":[
		{
			"name":"Untitled2",
			"primitives":[
				{
					"attributes":{
						"POSITION":0,
						"NORMAL":1,
						"TEXCOORD_0":2,
						"JOINTS_0":3,
						"WEIGHTS_0":4
					},
					"indices":5,
					"material":0
				}
			]
		}
	],
	"skins":[
		{
			"inverseBindMatrices":6,
			"joints":[
				40,
				39,
				17,
				16,
				3,
				2,
				1,
				0,
				9,
				8,
				7,
				6,
				5,
				4,
				15,
				14,
				13,
				12,
				11,
				10,
				38,
				25,
				24,
				23,
				22,
				21,
				20,
				19,
				18,
				31,
				30,
				29,
				28,
				27,
				26,
				37,
				36,
				35,
				34,
				33,
				32
			],
			"name":"rig"
		}
	],
	"accessors":[
		{
			"bufferView":0,
			"componentType":5126,
			"count":15166,
			"max":[
				9.50094985961914,
				31.074462890625,
				38.00143814086914
			],
			"min":[
				-9.50094985961914,
				-31.074462890625,
				-38.00144577026367
			],
			"type":"VEC3"
		},
		{
			"bufferView":1,
			"componentType":5126,
			"count":15166,
			"type":"VEC3"
		},
		{
			"bufferView":2,
			"componentType":5126,
			"count":15166,
			"type":"VEC2"
		},
		{
			"bufferView":3,
			"componentType":5121,
			"count":15166,
			"type":"VEC4"
		},
		{
			"bufferView":4,
			"componentType":5126,
			"count":15166,
			"type":"VEC4"
		},
		{
			"bufferView":5,
			"componentType":5123,
			"count":59709,
			"type":"SCALAR"
		},
		{
			"bufferView":6,
			"componentType":5126,
			"count":41,
			"type":"MAT4"
		}
	],
	"bufferViews":[
		{
			"buffer":0,
			"byteLength":181992,
			"byteOffset":0,
			"target":34962
		},
		{
			"buffer":0,
			"byteLength":181992,
			"byteOffset":181992,
			"target":34962
		},
		{
			"buffer":0,
			"byteLength":121328,
			"byteOffset":363984,
			"target":34962
		},
		{
			"buffer":0,
			"byteLength":60664,
			"byteOffset":485312,
			"target":34962
		},
		{
			"buffer":0,
			"byteLength":242656,
			"byteOffset":545976,
			"target":34962
		},
		{
			"buffer":0,
			"byteLength":119418,
			"byteOffset":788632,
			"target":34963
		},
		{
			"buffer":0,
			"byteLength":2624,
			"byteOffset":908052
		}
	],
	"buffers":[
		{
			"byteLength":910676,
			"uri":"data:application/octet-stream;base64,"
		}
	]
}
